HIERARCHY
ROOT Hips
{
  OFFSET 5.72205e-005 65.662 3.42586
  CHANNELS 6 Xposition Yposition Zposition Zrotation Xrotation Yrotation
  JOINT Chest
  {
    OFFSET 0 8.7983 -4.7612
    CHANNELS 6 Xposition Yposition Zposition Zrotation Xrotation Yrotation
    JOINT Chest2
    {
      OFFSET 0 8.0291 0.4195
      CHANNELS 6 Xposition Yposition Zposition Zrotation Xrotation Yrotation
      JOINT Chest3
      {
        OFFSET 0 9.9351 -2.2114
        CHANNELS 6 Xposition Yposition Zposition Zrotation Xrotation Yrotation
        JOINT Neck
        {
          OFFSET 0 22.3885 -0.4656
          CHANNELS 6 Xposition Yposition Zposition Zrotation Xrotation Yrotation
          JOINT Head
          {
            OFFSET -0.0001 12.643 3.4389
            CHANNELS 6 Xposition Yposition Zposition Zrotation Xrotation Yrotation
            End Site
            {
              OFFSET 0.0001 17.6655 0.5274
            }
          }
        }
        JOINT LeftCollar
        {
          OFFSET 2.2603 21.606 7.4023
          CHANNELS 6 Xposition Yposition Zposition Zrotation Xrotation Yrotation
          JOINT LeftShoulder
          {
            OFFSET 13.5163 -1.1332 -5.0146
            CHANNELS 6 Xposition Yposition Zposition Zrotation Xrotation Yrotation
            JOINT LeftElbow
            {
              OFFSET -0.0995 -28.05 -0.2431
              CHANNELS 6 Xposition Yposition Zposition Zrotation Xrotation Yrotation
              JOINT LeftWrist
              {
                OFFSET 0.0679 -23.3996 -0.1402
                CHANNELS 6 Xposition Yposition Zposition Zrotation Xrotation Yrotation
                JOINT LeftFinger1
                {
                  OFFSET 0.7932 -9.069 2.5189
                  CHANNELS 6 Xposition Yposition Zposition Zrotation Xrotation Yrotation
                  JOINT LeftFinger11
                  {
                    OFFSET -0.8272 -3.3923 0.5977
                    CHANNELS 6 Xposition Yposition Zposition Zrotation Xrotation Yrotation
                    JOINT LeftFinger12
                    {
                      OFFSET -0.5649 -2.3158 0.4082
                      CHANNELS 6 Xposition Yposition Zposition Zrotation Xrotation Yrotation
                      End Site
                      {
                        OFFSET -0.4919 -1.6479 0.2673
                      }
                    }
                  }
                }
                JOINT LeftFinger2
                {
                  OFFSET 0.9159 -9.2044 0.2193
                  CHANNELS 6 Xposition Yposition Zposition Zrotation Xrotation Yrotation
                  JOINT LeftFinger21
                  {
                    OFFSET 0.0117 -4.1944 -0.0248
                    CHANNELS 6 Xposition Yposition Zposition Zrotation Xrotation Yrotation
                    JOINT LeftFinger22
                    {
                      OFFSET 0.0071 -2.3249 -0.0142
                      CHANNELS 6 Xposition Yposition Zposition Zrotation Xrotation Yrotation
                      End Site
                      {
                        OFFSET -0.1475 -2.0882 0.0028
                      }
                    }
                  }
                }
                JOINT LeftFinger3
                {
                  OFFSET 0.6113 -8.7231 -2.0637
                  CHANNELS 6 Xposition Yposition Zposition Zrotation Xrotation Yrotation
                  JOINT LeftFinger31
                  {
                    OFFSET -0.1927 -3.8059 -0.2383
                    CHANNELS 6 Xposition Yposition Zposition Zrotation Xrotation Yrotation
                    JOINT LeftFinger32
                    {
                      OFFSET -0.1091 -2.1688 -0.1362
                      CHANNELS 6 Xposition Yposition Zposition Zrotation Xrotation Yrotation
                      End Site
                      {
                        OFFSET -0.2358 -1.9176 -0.0906
                      }
                    }
                  }
                }
                JOINT LeftFinger4
                {
                  OFFSET -0.6151 -8.0947 -3.5641
                  CHANNELS 6 Xposition Yposition Zposition Zrotation Xrotation Yrotation
                  JOINT LeftFinger41
                  {
                    OFFSET -0.4882 -2.341 -0.6462
                    CHANNELS 6 Xposition Yposition Zposition Zrotation Xrotation Yrotation
                    JOINT LeftFinger42
                    {
                      OFFSET -0.3575 -1.7167 -0.4742
                      CHANNELS 6 Xposition Yposition Zposition Zrotation Xrotation Yrotation
                      End Site
                      {
                        OFFSET -0.4187 -1.5237 -0.3496
                      }
                    }
                  }
                }
                JOINT LeftFinger0
                {
                  OFFSET -1.42 -1.8761 1.4223
                  CHANNELS 6 Xposition Yposition Zposition Zrotation Xrotation Yrotation
                  JOINT LeftFinger01
                  {
                    OFFSET -1.1471 -3.4929 2.6334
                    CHANNELS 6 Xposition Yposition Zposition Zrotation Xrotation Yrotation
                    JOINT LeftFinger02
                    {
                      OFFSET -0.823 -2.3 1.6571
                      CHANNELS 6 Xposition Yposition Zposition Zrotation Xrotation Yrotation
                      End Site
                      {
                        OFFSET -0.5822 -1.6914 1.1582
                      }
                    }
                  }
                }
              }
            }
          }
        }
        JOINT RightCollar
        {
          OFFSET -2.2603 21.606 7.4023
          CHANNELS 6 Xposition Yposition Zposition Zrotation Xrotation Yrotation
          JOINT RightShoulder
          {
            OFFSET -13.5187 -1.1334 -5.0155
            CHANNELS 6 Xposition Yposition Zposition Zrotation Xrotation Yrotation
            JOINT RightElbow
            {
              OFFSET 0.0994 -28.0499 -0.2431
              CHANNELS 6 Xposition Yposition Zposition Zrotation Xrotation Yrotation
              JOINT RightWrist
              {
                OFFSET -0.0679 -23.3996 -0.1402
                CHANNELS 6 Xposition Yposition Zposition Zrotation Xrotation Yrotation
                JOINT RightFinger1
                {
                  OFFSET -0.7932 -9.0691 2.5189
                  CHANNELS 6 Xposition Yposition Zposition Zrotation Xrotation Yrotation
                  JOINT RightFinger11
                  {
                    OFFSET 0.8272 -3.3923 0.5977
                    CHANNELS 6 Xposition Yposition Zposition Zrotation Xrotation Yrotation
                    JOINT RightFinger12
                    {
                      OFFSET 0.565 -2.3158 0.4082
                      CHANNELS 6 Xposition Yposition Zposition Zrotation Xrotation Yrotation
                      End Site
                      {
                        OFFSET 0.4919 -1.6479 0.2673
                      }
                    }
                  }
                }
                JOINT RightFinger2
                {
                  OFFSET -0.916 -9.2044 0.2193
                  CHANNELS 6 Xposition Yposition Zposition Zrotation Xrotation Yrotation
                  JOINT RightFinger21
                  {
                    OFFSET -0.0117 -4.1944 -0.0248
                    CHANNELS 6 Xposition Yposition Zposition Zrotation Xrotation Yrotation
                    JOINT RightFinger22
                    {
                      OFFSET -0.0071 -2.3249 -0.0142
                      CHANNELS 6 Xposition Yposition Zposition Zrotation Xrotation Yrotation
                      End Site
                      {
                        OFFSET 0.1475 -2.0882 0.0028
                      }
                    }
                  }
                }
                JOINT RightFinger3
                {
                  OFFSET -0.6113 -8.7231 -2.0637
                  CHANNELS 6 Xposition Yposition Zposition Zrotation Xrotation Yrotation
                  JOINT RightFinger31
                  {
                    OFFSET 0.1927 -3.8059 -0.2383
                    CHANNELS 6 Xposition Yposition Zposition Zrotation Xrotation Yrotation
                    JOINT RightFinger32
                    {
                      OFFSET 0.1091 -2.1688 -0.1362
                      CHANNELS 6 Xposition Yposition Zposition Zrotation Xrotation Yrotation
                      End Site
                      {
                        OFFSET 0.2358 -1.9176 -0.0906
                      }
                    }
                  }
                }
                JOINT RightFinger4
                {
                  OFFSET 0.6151 -8.0947 -3.564
                  CHANNELS 6 Xposition Yposition Zposition Zrotation Xrotation Yrotation
                  JOINT RightFinger41
                  {
                    OFFSET 0.4882 -2.341 -0.6462
                    CHANNELS 6 Xposition Yposition Zposition Zrotation Xrotation Yrotation
                    JOINT RightFinger42
                    {
                      OFFSET 0.3574 -1.7166 -0.4742
                      CHANNELS 6 Xposition Yposition Zposition Zrotation Xrotation Yrotation
                      End Site
                      {
                        OFFSET 0.4187 -1.5237 -0.3496
                      }
                    }
                  }
                }
                JOINT RightFinger0
                {
                  OFFSET 1.4199 -1.8761 1.4221
                  CHANNELS 6 Xposition Yposition Zposition Zrotation Xrotation Yrotation
                  JOINT RightFinger01
                  {
                    OFFSET 1.1472 -3.4929 2.6336
                    CHANNELS 6 Xposition Yposition Zposition Zrotation Xrotation Yrotation
                    JOINT RightFinger02
                    {
                      OFFSET 0.8229 -2.3 1.6571
                      CHANNELS 6 Xposition Yposition Zposition Zrotation Xrotation Yrotation
                      End Site
                      {
                        OFFSET 0.5822 -1.6914 1.1582
                      }
                    }
                  }
                }
              }
            }
          }
        }
      }
    }
  }
  JOINT RightHip
  {
    OFFSET -9.412 3.9771 -0.7758
    CHANNELS 6 Xposition Yposition Zposition Zrotation Xrotation Yrotation
    JOINT RightKnee
    {
      OFFSET -0.7531 -40.938 0
      CHANNELS 6 Xposition Yposition Zposition Zrotation Xrotation Yrotation
      JOINT RightAnkle
      {
        OFFSET 0 -40.1986 0
        CHANNELS 6 Xposition Yposition Zposition Zrotation Xrotation Yrotation
        JOINT RightToe
        {
          OFFSET 0 -4.4182 9.239
          CHANNELS 6 Xposition Yposition Zposition Zrotation Xrotation Yrotation
          End Site
          {
            OFFSET 0 0 6.1981
          }
        }
      }
    }
  }
  JOINT LeftHip
  {
    OFFSET 9.4119 3.9773 -0.7758
    CHANNELS 6 Xposition Yposition Zposition Zrotation Xrotation Yrotation
    JOINT LeftKnee
    {
      OFFSET 0.7532 -40.9383 0
      CHANNELS 6 Xposition Yposition Zposition Zrotation Xrotation Yrotation
      JOINT LeftAnkle
      {
        OFFSET 0 -40.1986 0
        CHANNELS 6 Xposition Yposition Zposition Zrotation Xrotation Yrotation
        JOINT LeftToe
        {
          OFFSET 0 -4.4182 9.239
          CHANNELS 6 Xposition Yposition Zposition Zrotation Xrotation Yrotation
          End Site
          {
            OFFSET 0 0 6.1981
          }
        }
      }
    }
  }
}
MOTION
Frames:	4
Frame Time:	0.0333333
5.72205e-005 65.662 3.42586 0 0 -0 0 8.7983 -4.7612 0 0 -0 0 8.0291 0.4195 0 0 -0 0 9.9351 -2.2114 0 0 -0 0 22.3885 -0.4656 0 0 -0 -0.0001 12.643 3.4389 0 0 -0 2.2603 21.606 7.4023 0 0 -12.5014 13.5163 -1.1332 -5.0146 88.1196 14.2451 10.6914 -0.0995 -28.05 -0.2431 -0.00160068 -0.00239207 0.000740045 0.0679 -23.3996 -0.1402 -8.4365e-005 7.00714e-005 -9.52055e-007 0.7932 -9.069 2.5189 9.93923e-017 -1.98785e-016 -1.59028e-015 -0.8272 -3.3923 0.5977 9.93923e-017 -5.96354e-016 -1.59028e-015 -0.5649 -2.3158 0.4082 -9.93923e-017 -5.96354e-016 -1.59028e-015 0.9159 -9.2044 0.2193 9.93923e-017 -1.98785e-016 -1.59028e-015 0.0117 -4.1944 -0.0248 -0.0128176 0.00232552 8.52707e-005 0.0071 -2.3249 -0.0142 9.93923e-017 5.96354e-016 -0 0.6113 -8.7231 -2.0637 9.93923e-017 -1.98785e-016 -1.59028e-015 -0.1927 -3.8059 -0.2383 -0.0160551 0.00299681 0.000857156 -0.1091 -2.1688 -0.1362 -2.48481e-016 0 3.18055e-015 -0.6151 -8.0947 -3.5641 9.93923e-017 -1.98785e-016 -1.59028e-015 -0.4882 -2.341 -0.6462 -0.0125865 0.0031206 0.00282719 -0.3575 -1.7167 -0.4742 0 1.98785e-016 -0 -1.42 -1.8761 1.4223 9.93923e-017 -1.98785e-016 -1.59028e-015 -1.1471 -3.4929 2.6334 9.93923e-017 -5.96354e-016 -1.59028e-015 -0.823 -2.3 1.6571 -9.93923e-017 -5.96354e-016 -1.59028e-015 -2.2603 21.606 7.4023 -0.865644 0.16582 7.03859 -13.5187 -1.1334 -5.0155 -88.0329 10.2057 -10.5567 0.0994 -28.0499 -0.2431 0.0015593 -0.00248883 -0.000788628 -0.0679 -23.3996 -0.1402 7.87605e-005 4.10553e-005 1.24965e-005 -0.7932 -9.0691 2.5189 -3.97569e-016 -7.95139e-016 3.18055e-015 0.8272 -3.3923 0.5977 -1.98785e-016 -3.97569e-016 3.18055e-015 0.565 -2.3158 0.4082 -1.98785e-016 0 3.18055e-015 -0.916 -9.2044 0.2193 -3.97569e-016 -7.95139e-016 3.18055e-015 -0.0117 -4.1944 -0.0248 0.0129473 0.00231697 -8.70038e-005 -0.0071 -2.3249 -0.0142 9.93923e-017 -7.95139e-016 1.59028e-015 -0.6113 -8.7231 -2.0637 -3.97569e-016 -7.95139e-016 3.18055e-015 0.1927 -3.8059 -0.2383 0.0163314 0.00303369 -0.000872333 0.1091 -2.1688 -0.1362 3.97569e-016 7.95139e-016 -3.18055e-015 0.6151 -8.0947 -3.564 -3.97569e-016 -7.95139e-016 3.18055e-015 0.4882 -2.341 -0.6462 0.0145763 0.00367772 -0.00326275 0.3574 -1.7166 -0.4742 9.93923e-017 -3.97569e-016 -0 1.4199 -1.8761 1.4221 -3.97569e-016 -7.95139e-016 3.18055e-015 1.1472 -3.4929 2.6336 -1.98785e-016 -3.97569e-016 3.18055e-015 0.8229 -2.3 1.6571 -1.98785e-016 0 3.18055e-015 -9.412 3.9771 -0.7758 3.42482 1.32465 -0.0626183 -0.7531 -40.938 0 0.000117508 0.717283 0.000978199 0 -40.1986 0 -3.4257 -2.04197 -0.0604716 8.88178e-016 -4.4182 9.239 6.47761e-025 0 -0 9.4119 3.9773 -0.7758 -3.42483 1.34017 0.0627307 0.7532 -40.9383 -2.22045e-016 -0.000193936 0.682302 -0.0013703 -8.88179e-016 -40.1986 0 3.42574 -2.02253 0.0595886 -8.88178e-016 -4.4182 9.239 -8.45714e-024 0 -7.40531e-025 
-0.346666 2.13866 9.7312 180 -89.9981 180 0 8.7983 -4.7612 -0.0789667 7.72075 -0.142768 0 8.0291 0.4195 -0.14025 15.4418 -0.278534 0 9.9351 -2.2114 -0.14025 15.4417 -0.278535 0 22.3885 -0.4656 0.000699796 17.997 26.9971 -0.0001 12.643 3.4389 -0.00209223 4.99621 24.9967 2.2603 21.606 7.4023 -0.877495 3.44001 -0.37297 13.5163 -1.1332 -5.0146 4.24927 33.6864 24.8548 -0.0995 -28.05 -0.2431 -31.1342 -71.4522 -58.0688 0.0679 -23.3996 -0.1402 -7.5836 1.6974 -26.5415 0.7932 -9.069 2.5189 5.96354e-016 -1.59028e-015 -1.2921e-015 -0.8272 -3.3923 0.5977 -2.17727e-006 3.14715e-007 -5.83945e-006 -0.5649 -2.3158 0.4082 -1.67331e-006 -1.37202e-007 -3.36425e-007 0.9159 -9.2044 0.2193 5.96354e-016 -1.59028e-015 -1.2921e-015 0.0117 -4.1944 -0.0248 -0.0128053 0.00232397 9.38908e-005 0.0071 -2.3249 -0.0142 -9.69109e-006 9.30722e-006 -4.1489e-006 0.6113 -8.7231 -2.0637 5.96354e-016 -1.59028e-015 -1.2921e-015 -0.1927 -3.8059 -0.2383 -0.016067 0.00299772 0.000863796 -0.1091 -2.1688 -0.1362 -2.1782e-006 7.18184e-007 -5.8395e-006 -0.6151 -8.0947 -3.5641 5.96354e-016 -1.59028e-015 -1.2921e-015 -0.4882 -2.341 -0.6462 -0.0125977 0.00314444 0.00283804 -0.3575 -1.7167 -0.4742 -1.98785e-016 -1.59028e-015 -1.68967e-015 -1.42 -1.8761 1.4223 5.96354e-016 -1.59028e-015 -1.2921e-015 -1.1471 -3.4929 2.6334 -2.17727e-006 3.14715e-007 -5.83945e-006 -0.823 -2.3 1.6571 -1.67331e-006 -1.37202e-007 -3.36425e-007 -2.2603 21.606 7.4023 5.11875 -0.371764 15.4632 -13.5187 -1.1334 -5.0155 -25.1145 -16.009 13.6721 0.0994 -28.0499 -0.2431 51.5658 -45.8573 2.47206 -0.0679 -23.3996 -0.1402 -26.468 8.13259 -2.745 -0.7932 -9.0691 2.5189 2.79309e-006 -1.34907e-006 -8.754e-006 0.8272 -3.3923 0.5977 -3.12048e-006 7.90813e-008 2.38257e-006 0.565 -2.3158 0.4082 1.90901e-006 -1.2331e-006 -5.07975e-006 -0.916 -9.2044 0.2193 2.79309e-006 -1.34907e-006 -8.754e-006 -0.0117 -4.1944 -0.0248 0.0129586 0.00232084 -9.64616e-005 -0.0071 -2.3249 -0.0142 -6.21894e-006 3.78893e-007 5.18965e-006 -0.6113 -8.7231 -2.0637 2.79309e-006 -1.34907e-006 -8.754e-006 0.1927 -3.8059 -0.2383 0.0163431 0.00303167 -0.000879906 0.1091 -2.1688 -0.1362 -3.44439e-006 1.00813e-005 -3.6366e-006 0.6151 -8.0947 -3.564 2.79309e-006 -1.34907e-006 -8.754e-006 0.4882 -2.341 -0.6462 0.0145621 0.00367981 -0.00325447 0.3574 -1.7166 -0.4742 -4.95705e-007 -1.05125e-005 7.74977e-007 1.4199 -1.8761 1.4221 2.79309e-006 -1.34907e-006 -8.754e-006 1.1472 -3.4929 2.6336 -3.12048e-006 7.90813e-008 2.38257e-006 0.8229 -2.3 1.6571 1.90901e-006 -1.2331e-006 -5.07975e-006 -9.412 3.9771 -0.7758 -27.8492 -40.4805 11.8247 -0.7531 -40.938 -5.32907e-015 175.735 69.3277 -178.27 3.55271e-015 -40.1986 0 -10.7135 32.5002 41.7968 0 -4.4182 9.239 7.0522e-008 2.09524e-009 -2.01456e-007 9.4119 3.9773 -0.7758 9.06495 4.18814 -25.5156 0.7532 -40.9383 -4.44089e-016 -5.63536 4.31259 0.147536 1.77636e-015 -40.1986 2.66454e-015 13.4633 -6.03402 4.73081 -1.77636e-015 -4.4182 9.239 -5.48436e-007 1.02367e-005 5.21135e-006 
-0.347105 2.13869 9.73121 -179.999 -89.9981 -179.999 0 8.7983 -4.7612 -0.0751096 7.90392 -0.143591 0 8.0291 0.4195 -0.131908 15.808 -0.280675 0 9.9351 -2.2114 -0.131908 15.8081 -0.280675 -5.55112e-017 22.3885 -0.4656 0.120347 17.3109 26.9578 -0.0001 12.643 3.4389 -0.00968076 4.68872 24.9966 2.2603 21.606 7.4023 -1.36092 3.16882 -0.583003 13.5163 -1.1332 -5.0146 4.7334 33.7075 24.6477 -0.0995 -28.05 -0.2431 -30.4178 -71.4514 -57.3812 0.0679 -23.3996 -0.1402 -7.17285 1.09068 -26.2338 0.7932 -9.069 2.5189 -2.02239e-006 -1.90729e-006 1.79185e-006 -0.8272 -3.3923 0.5977 -9.93923e-016 -1.59028e-015 -5.96354e-016 -0.5649 -2.3158 0.4082 1.53965e-007 -3.60453e-006 7.63372e-006 0.9159 -9.2044 0.2193 -2.02239e-006 -1.90729e-006 1.79185e-006 0.0117 -4.1944 -0.0248 -0.0128097 0.0023159 8.65652e-005 0.0071 -2.3249 -0.0142 1.32337e-006 6.87932e-008 2.46578e-006 0.6113 -8.7231 -2.0637 -2.02239e-006 -1.90729e-006 1.79185e-006 -0.1927 -3.8059 -0.2383 -0.016041 0.0029953 0.000867089 -0.1091 -2.1688 -0.1362 -3.34643e-006 -2.41231e-006 -6.7404e-007 -0.6151 -8.0947 -3.5641 -2.02239e-006 -1.90729e-006 1.79185e-006 -0.4882 -2.341 -0.6462 -0.012593 0.00311892 0.00283447 -0.3575 -1.7167 -0.4742 -9.93923e-016 1.59028e-015 -4.17448e-015 -1.42 -1.8761 1.4223 -2.02239e-006 -1.90729e-006 1.79185e-006 -1.1471 -3.4929 2.6334 -9.93923e-016 -1.59028e-015 -5.96354e-016 -0.823 -2.3 1.6571 1.53965e-007 -3.60453e-006 7.63372e-006 -2.2603 21.606 7.4023 4.72358 -0.932221 15.2507 -13.5187 -1.1334 -5.0155 -24.8639 -15.9098 13.7897 0.0994 -28.0499 -0.2431 52.348 -46.7118 3.38725 -0.0679 -23.3996 -0.1402 -26.8708 7.82191 -2.51014 -0.7932 -9.0691 2.5189 -6.36111e-015 -7.95139e-016 -5.96354e-016 0.8272 -3.3923 0.5977 -3.18055e-015 -2.38542e-015 -0 0.565 -2.3158 0.4082 5.51738e-033 -1.59028e-015 1.98785e-016 -0.916 -9.2044 0.2193 -6.36111e-015 -7.95139e-016 -5.96354e-016 -0.0117 -4.1944 -0.0248 0.0129576 0.00231163 -7.48962e-005 -0.0071 -2.3249 -0.0142 -0 -1.59028e-015 -0 -0.6113 -8.7231 -2.0637 -6.36111e-015 -7.95139e-016 -5.96354e-016 0.1927 -3.8059 -0.2383 0.0163264 0.00303699 -0.000880883 0.1091 -2.1688 -0.1362 -6.36111e-015 1.27222e-014 -3.97569e-016 0.6151 -8.0947 -3.564 -6.36111e-015 -7.95139e-016 -5.96354e-016 0.4882 -2.341 -0.6462 0.0145765 0.00367592 -0.00326278 0.3574 -1.7166 -0.4742 3.18055e-015 -7.95139e-016 1.59028e-015 1.4199 -1.8761 1.4221 -6.36111e-015 -7.95139e-016 -5.96354e-016 1.1472 -3.4929 2.6336 -3.18055e-015 -2.38542e-015 -0 0.8229 -2.3 1.6571 5.51738e-033 -1.59028e-015 1.98785e-016 -9.412 3.9771 -0.7758 -28.9632 -40.6412 10.5269 -0.7531 -40.938 1.77636e-015 175.735 69.3286 -178.275 0 -40.1986 -7.10543e-015 -11.9656 32.3558 42.4923 -7.10543e-015 -4.4182 9.239 -2.46617e-015 0 3.72721e-016 9.4119 3.9773 -0.7758 9.06533 4.18821 -25.5157 0.7532 -40.9383 0 -5.6354 4.31235 0.147526 0 -40.1986 1.77636e-015 13.4631 -6.03401 4.73081 -3.55271e-015 -4.4182 9.239 -3.18055e-015 3.18055e-015 -3.77691e-015 
-0.347535 2.13872 9.73118 180 -89.9981 180 0 8.7983 -4.7612 -0.07124 8.08713 -0.144446 0 8.0291 0.4195 -0.12352 16.1744 -0.282916 0 9.9351 -2.2114 -0.12352 16.1745 -0.282916 -5.55111e-017 22.3885 -0.4656 0.23912 16.6244 26.9202 -0.0001 12.643 3.4389 -0.0172697 4.38122 24.9964 2.2603 21.606 7.4023 -1.84538 2.89938 -0.795326 13.5163 -1.1332 -5.0146 5.21767 33.727 24.4404 -0.0995 -28.05 -0.2431 -29.7014 -71.4479 -56.6938 0.0679 -23.3996 -0.1402 -6.75866 0.485786 -25.9217 0.7932 -9.069 2.5189 -4.2817e-006 7.27952e-006 4.03771e-006 -0.8272 -3.3923 0.5977 2.18663e-015 0 -9.88954e-015 -0.5649 -2.3158 0.4082 -6.07527e-006 1.13914e-005 2.48613e-006 0.9159 -9.2044 0.2193 -4.2817e-006 7.27952e-006 4.03771e-006 0.0117 -4.1944 -0.0248 -0.0128263 0.00232414 8.78028e-005 0.0071 -2.3249 -0.0142 -1.67315e-006 -2.47043e-006 -3.37413e-007 0.6113 -8.7231 -2.0637 -4.2817e-006 7.27952e-006 4.03771e-006 -0.1927 -3.8059 -0.2383 -0.0160307 0.0029973 0.00085511 -0.1091 -2.1688 -0.1362 -4.55158e-006 -1.0013e-006 -1.9257e-006 -0.6151 -8.0947 -3.5641 -4.2817e-006 7.27952e-006 4.03771e-006 -0.4882 -2.341 -0.6462 -0.0125731 0.00311403 0.00282365 -0.3575 -1.7167 -0.4742 -8.53928e-007 1.34499e-006 -3.37842e-006 -1.42 -1.8761 1.4223 -4.2817e-006 7.27952e-006 4.03771e-006 -1.1471 -3.4929 2.6334 2.18663e-015 0 -9.88954e-015 -0.823 -2.3 1.6571 -6.07527e-006 1.13914e-005 2.48613e-006 -2.2603 21.606 7.4023 4.32607 -1.49144 15.0341 -13.5187 -1.1334 -5.0155 -24.6133 -15.8101 13.9068 0.0994 -28.0499 -0.2431 53.1634 -47.5584 4.3354 -0.0679 -23.3996 -0.1402 -27.2722 7.50947 -2.27756 -0.7932 -9.0691 2.5189 1.65521e-031 1.19271e-014 -7.95139e-016 0.8272 -3.3923 0.5977 -8.27607e-032 1.19271e-014 3.97569e-016 0.565 -2.3158 0.4082 3.18055e-015 1.11319e-014 -1.98785e-016 -0.916 -9.2044 0.2193 1.65521e-031 1.19271e-014 -7.95139e-016 -0.0117 -4.1944 -0.0248 0.0129532 0.00232183 -9.47182e-005 -0.0071 -2.3249 -0.0142 -3.18055e-015 7.95139e-016 -1.98785e-016 -0.6113 -8.7231 -2.0637 1.65521e-031 1.19271e-014 -7.95139e-016 0.1927 -3.8059 -0.2383 0.016328 0.00303289 -0.000879614 0.1091 -2.1688 -0.1362 -3.18055e-015 1.59028e-015 -1.78906e-015 0.6151 -8.0947 -3.564 1.65521e-031 1.19271e-014 -7.95139e-016 0.4882 -2.341 -0.6462 0.0145777 0.0036793 -0.00326409 0.3574 -1.7166 -0.4742 3.18055e-015 7.95139e-016 -9.93923e-016 1.4199 -1.8761 1.4221 1.65521e-031 1.19271e-014 -7.95139e-016 1.1472 -3.4929 2.6336 -8.27607e-032 1.19271e-014 3.97569e-016 0.8229 -2.3 1.6571 3.18055e-015 1.11319e-014 -1.98785e-016 -9.412 3.9771 -0.7758 -30.0858 -40.7821 9.22062 -0.7531 -40.938 -1.77636e-015 175.735 69.3304 -178.28 0 -40.1986 0 -13.2145 32.1985 43.1833 0 -4.4182 9.239 -5.247e-007 -1.45366e-008 2.11844e-007 9.4119 3.9773 -0.7758 9.06543 4.18775 -25.5157 0.7532 -40.9383 6.66134e-016 -5.63546 4.31352 0.147635 1.77636e-015 -40.1986 0 13.4628 -6.0348 4.73088 1.77636e-015 -4.4182 9.239 -1.62277e-006 -9.41197e-007 1.43686e-006 
